<?xml version="1.0" encoding="UTF-8"?>
<svg width="16" height="16" version="1.1" viewBox="0 0 4.233 4.233" xmlns="http://www.w3.org/2000/svg">
 <rect transform="translate(-8.996 4.498)" x="9.657" y="-3.836" width="2.91" height="2.91" rx=".3969" fill="#fdf3f5" stroke="#c3223d" stroke-width=".2646"/>
 <path d="m2.784 2.711q0 0.07956-0.0442 0.1414-0.03978 0.06188-0.1149 0.1061-0.07072 0.03978-0.1635 0.06188-0.09282 0.0221-0.1945 0.0221h-0.8177v-1.852h0.7647q0.1017 0 0.1945 0.0221 0.09724 0.0221 0.168 0.0663 0.07072 0.03978 0.1149 0.1017 0.0442 0.06188 0.0442 0.1414v0.3094q0 0.02652-0.00884 0.05746-0.00884 0.02652-0.02652 0.05304-0.01326 0.02652-0.03978 0.05304-0.0221 0.0221-0.05746 0.03978 0.03094 0.01768 0.06188 0.03978 0.03536 0.0221 0.06188 0.05304 0.02652 0.02652 0.03978 0.06188 0.01768 0.03094 0.01768 0.07514zm-0.6012 0.08398q0.07956 0 0.1282-0.03094t0.04862-0.09282v-0.3669q0-0.05746-0.0442-0.0884t-0.1238-0.03536h-0.3183v0.6144zm0.1238-0.9857v-0.2475q0-0.06188-0.04862-0.09282-0.0442-0.03094-0.1282-0.03094h-0.2564v0.4951h0.2564q0.0884 0 0.1326-0.03536 0.0442-0.03536 0.0442-0.0884z" fill="#c3223d" fill-opacity=".9456" aria-label="B"/>
</svg>
